<svg width="30" height="36" viewBox="0 0 30 36" fill="none" xmlns="http://www.w3.org/2000/svg">
<path d="M14.7788 17.3201C17.1548 17.3201 19.2189 16.4669 20.9069 14.779C22.5949 13.091 23.448 11.0361 23.448 8.65087C23.448 6.27486 22.5949 4.21076 20.9069 2.52279C19.2189 0.853161 17.1548 0 14.7788 0C12.4028 0 10.3387 0.853161 8.65075 2.54114C6.96278 4.21994 6.10962 6.28404 6.10962 8.66004C6.10962 11.0361 6.96278 13.1002 8.65075 14.7881C10.3387 16.4669 12.3937 17.3201 14.7788 17.3201ZM10.1461 4.02729C11.4396 2.73378 12.9533 2.10997 14.7788 2.10997C16.6044 2.10997 18.1181 2.73378 19.4116 4.02729C20.7051 5.32079 21.3289 6.83446 21.3289 8.66004C21.3289 10.4856 20.7051 11.9993 19.4116 13.2928C18.1181 14.5863 16.6044 15.2101 14.7788 15.2101C12.9533 15.2101 11.4396 14.5771 10.1461 13.2928C8.85258 11.9993 8.22876 10.4856 8.22876 8.66004C8.21959 6.83446 8.85258 5.32079 10.1461 4.02729Z" fill="#06BAE8"/>
<path d="M29.934 27.659C29.8882 26.9618 29.7872 26.1912 29.6405 25.3839C29.4937 24.5674 29.3102 23.806 29.0809 23.0996C28.8515 22.3749 28.5304 21.6593 28.1451 20.9713C27.7415 20.2557 27.2645 19.6411 26.7324 19.1274C26.1728 18.5953 25.4847 18.1641 24.6958 17.8522C23.9069 17.5403 23.0353 17.3843 22.0996 17.3843C21.7327 17.3843 21.3749 17.5311 20.696 17.9806C20.274 18.2558 19.7787 18.5769 19.2282 18.9255C18.7604 19.2283 18.1182 19.5035 17.3293 19.7603C16.5587 20.008 15.7789 20.1365 15.0083 20.1365C14.2377 20.1365 13.4579 20.008 12.6873 19.7603C11.8984 19.5035 11.2654 19.2283 10.7884 18.9255C10.2379 18.5769 9.75172 18.2558 9.32055 17.9806C8.63252 17.5311 8.28392 17.3843 7.91697 17.3843C6.98124 17.3843 6.10973 17.5403 5.32079 17.8522C4.53185 18.1641 3.84381 18.5953 3.28421 19.1274C2.75213 19.6411 2.2751 20.2557 1.87145 20.9713C1.4678 21.6501 1.1559 22.3749 0.917377 23.0996C0.697207 23.806 0.504558 24.5674 0.357777 25.3839C0.210997 26.1912 0.119259 26.9526 0.0642164 27.659C0.0275213 28.347 0 29.0534 0 29.7781C0 31.6587 0.596295 33.1724 1.77054 34.3008C2.93561 35.4108 4.46763 35.9704 6.33908 35.9704H23.6592C25.5306 35.9704 27.0626 35.4108 28.2277 34.3008C29.4019 33.1816 29.9982 31.6587 29.9982 29.7781C30.0074 29.0534 29.9799 28.3378 29.934 27.659ZM26.7782 32.7688C26.0077 33.5027 24.9894 33.8513 23.6592 33.8513H6.34825C5.01805 33.8513 3.99977 33.4935 3.22917 32.7688C2.47692 32.0532 2.10997 31.0716 2.10997 29.7781C2.10997 29.1084 2.12832 28.4387 2.17418 27.7966C2.22005 27.1728 2.30262 26.4847 2.44022 25.7508C2.56866 25.0261 2.73378 24.3472 2.93561 23.7326C3.12826 23.1455 3.38512 22.5583 3.69703 21.9987C3.99977 21.4667 4.34837 21.008 4.73367 20.6319C5.09144 20.2833 5.55013 19.9989 6.09139 19.7879C6.58677 19.5952 7.14637 19.4851 7.75184 19.4668C7.82523 19.5035 7.95366 19.5769 8.17383 19.7236C8.605 20.008 9.10956 20.3291 9.65998 20.6777C10.2838 21.0722 11.0819 21.43 12.0452 21.7419C13.0268 22.063 14.0267 22.2189 15.0175 22.2189C16.0082 22.2189 17.0082 22.0538 17.9898 21.7419C18.953 21.43 19.7511 21.0722 20.375 20.6777C20.9437 20.3199 21.4208 20.008 21.8611 19.7236C22.0721 19.586 22.2097 19.5127 22.2831 19.4668C22.8886 19.4851 23.4482 19.5952 23.9436 19.7879C24.4848 19.9989 24.9343 20.2833 25.3013 20.6319C25.6866 20.9988 26.0352 21.4575 26.3379 21.9987C26.659 22.5583 26.9159 23.1455 27.0993 23.7326C27.292 24.3472 27.4571 25.0261 27.5947 25.7508C27.7231 26.4847 27.8149 27.1728 27.8608 27.7966C27.9066 28.4296 27.925 29.0992 27.925 29.7781C27.8974 31.0716 27.5305 32.0532 26.7782 32.7688Z" fill="#06BAE8"/>
</svg>
