<svg width="30" height="31" viewBox="0 0 30 31" fill="none" xmlns="http://www.w3.org/2000/svg">
<path d="M0 4.49786C0 3.61866 0.33238 2.7609 0.922087 2.11758C1.58685 1.38849 2.53038 0.970337 3.52752 0.970337H8.2559C10.0465 0.970337 11.5583 2.31058 11.7513 4.09042C11.8692 5.14117 12.0836 6.17048 12.3946 7.17834C12.7806 8.43281 12.4482 9.78377 11.5261 10.7059L9.60686 12.6251C11.6119 16.292 14.6783 19.3585 18.3452 21.3635L20.2645 19.4442C21.1866 18.5222 22.5375 18.1898 23.792 18.5758C24.7999 18.8867 25.8292 19.1011 26.8799 19.2191C28.6598 19.4228 30 20.9239 30 22.7144V27.4428C30 28.4292 29.5818 29.3728 28.8528 30.0482C28.1237 30.713 27.1372 31.0454 26.1401 30.9596C22.7412 30.6487 19.4711 29.748 16.4046 28.2898C13.4239 26.8638 10.7219 24.9553 8.37384 22.6179C6.02573 20.2698 4.11723 17.5679 2.70193 14.5872C1.24375 11.5207 0.343102 8.23981 0.0321661 4.85168C2.25674e-07 4.71229 0 4.60508 0 4.49786ZM10.2073 8.20765C10.2073 8.08971 10.1858 7.97176 10.1537 7.85382C9.79986 6.7173 9.56397 5.53788 9.42459 4.34774C9.36026 3.75804 8.85633 3.30772 8.2559 3.30772H3.52752C3.19514 3.30772 2.8842 3.44711 2.65904 3.69371C2.43388 3.94032 2.32666 4.2727 2.34811 4.60508C3.5168 17.332 13.6169 27.4321 26.3545 28.6008C26.6976 28.6329 27.0193 28.5257 27.2659 28.2898C27.5125 28.0647 27.6519 27.7538 27.6519 27.4214V22.693C27.6519 22.0926 27.2016 21.5886 26.6119 21.5243C25.4217 21.3956 24.2423 21.149 23.1058 20.7952C22.6769 20.6665 22.2266 20.7738 21.9157 21.0847L18.7956 24.2048L18.045 23.8295C13.3381 21.4921 9.46748 17.6108 7.11937 12.9039L6.7441 12.1533L9.86419 9.03324C10.0894 8.80807 10.2073 8.51859 10.2073 8.20765Z" fill="#06BAE8"/>
</svg>
